<svg xmlns="http://www.w3.org/2000/svg" viewBox="0 0 313.13 123.96" width="313.13" height="123.96"><defs><style>.cls-1{fill:none;}.cls-2{fill:#fff;}</style></defs><title>Asset 2</title><g id="Layer_2" data-name="Layer 2"><g id="svg2816"><path class="cls-1" d="M167.28,90.17V53.44c0-5.91-3-9.54-7.94-9.54-5.49,0-7.52,2-11.48,5.4V44.74h-9V90.17h9.46V54.54c2.2-1.6,4.05-2.87,6.08-2.87s3.38,1,3.38,3.29V90.17Z"/><path class="cls-1" d="M118.16,91c10.56,0,14.52-6.59,14.69-16.21H123.4v1c0,5.24-1.86,7.43-5.24,7.43s-5.24-2.19-5.24-7.43V69.23h19.93V60.79c0-10-3.88-16.89-14.69-16.89s-14.69,6.92-14.69,16.89V74.13C103.47,84.09,107.35,91,118.16,91ZM112.92,59.1c0-5.24,1.86-7.43,5.24-7.43s5.24,2.2,5.24,7.43v2.36H112.92Z"/><polygon class="cls-1" points="213.24 90.17 222.7 90.17 222.7 52.09 222.87 52.09 236.21 90.17 245.33 90.17 245.33 31.25 245.33 29.2 235.87 29.2 235.87 31.25 235.87 64.08 235.7 64.08 223.7 31.25 222.95 29.2 213.24 29.2 213.24 31.25 213.24 90.17 213.24 90.17"/><path class="cls-1" d="M189.87,90.17c10.81,0,16.55-5.91,16.55-18.41V47.61c0-8.3-2.55-13.67-7.41-16.36a18.69,18.69,0,0,0-9.14-2H174.34v61Zm-5.07-52.36h3.63c5.57,0,7.52,2.11,7.52,8.53V73c0,6.42-1.94,8.53-7.52,8.53h-3.63Z"/><path class="cls-1" d="M262.3,42.85c0-3.8,1.86-6,5.24-6,2.36,0,5.15,1.52,5.57,6.76l8.77-1,1.2-.13a22.08,22.08,0,0,0-1.2-5.22,15.32,15.32,0,0,0-3.88-6,13.46,13.46,0,0,0-9.45-3.52c-4.84,0-8.7,1.23-11.44,3.52-3.1,2.59-4.78,6.53-4.78,11.69,0,17.48,21.28,20.69,21.28,32.77,0,3.63-2.45,5.57-6.08,5.57-3.38,0-5.83-3-6.25-9.21l-10,1.44c.42,9.12,6,16.89,15.71,16.89,6.89,0,12.26-2.76,14.85-7.89a17,17,0,0,0,1.7-7.73,17.77,17.77,0,0,0-1.7-7.64C276.84,56.34,262.3,51.44,262.3,42.85Z"/><path class="cls-1" d="M87.36,91C93.27,91,97,86.63,97,78.35V56.56c0-8.28-3.72-12.67-9.63-12.67-4.73,0-7,1.6-10.13,5.57h-.17V44.74h-9v59.79h9.46V86.29C81.28,89.33,83.23,91,87.36,91Zm-9.8-37c1.86-1.35,3.55-2.36,5.4-2.36,2.53,0,4.56,1.35,4.56,7.35V75.9c0,6-2,7.35-4.56,7.35-1.86,0-3.55-1-5.4-2.36Z"/><path class="cls-1" d="M45.23,91c11,0,16-7,16-15.62V44c0-5.25-1.9-9.9-5.86-12.73a17.13,17.13,0,0,0-10.19-2.89A17.13,17.13,0,0,0,35,31.25a13,13,0,0,0-3.79,4.24A17.21,17.21,0,0,0,29.19,44V75.4a17.21,17.21,0,0,0,2.06,8.5C33.67,88.18,38.25,91,45.23,91ZM39.66,75.14V44.23c0-4.56,1.35-6.76,5.57-6.76s5.57,2.2,5.57,6.76V75.14c0,4.56-1.35,6.76-5.57,6.76s-5.57-2.2-5.57-6.76Z"/><path class="cls-2" d="M300.63,0H12.5A12.54,12.54,0,0,0,0,12.5v99A12.54,12.54,0,0,0,12.5,124H300.63a12.54,12.54,0,0,0,12.5-12.5v-99A12.54,12.54,0,0,0,300.63,0ZM213.24,29.2H223l.75,2,12,32.83h.17V29.2h9.46v61h-9.12L222.87,52.09h-.17V90.17h-9.46v-61Zm-58.8,22.46c-2,0-3.88,1.27-6.08,2.87V90.17H138.9V44.74h9V49.3c4-3.38,6-5.4,11.48-5.4,5,0,7.94,3.63,7.94,9.54V90.17h-9.46V55C157.82,52.68,156.46,51.67,154.44,51.67Zm-51,9.12c0-10,3.88-16.89,14.69-16.89s14.69,6.92,14.69,16.89v8.45H112.92v6.59c0,5.24,1.86,7.43,5.24,7.43s5.24-2.19,5.24-7.43v-1h9.46C132.68,84.43,128.72,91,118.16,91c-10.81,0-14.69-6.93-14.69-16.89ZM174.34,29.2h15.54a18.69,18.69,0,0,1,9.14,2c4.86,2.69,7.41,8.07,7.41,16.36V71.77c0,12.5-5.74,18.41-16.55,18.41H174.34v-61ZM29.19,44a17.21,17.21,0,0,1,2.06-8.5A13,13,0,0,1,35,31.25a17.13,17.13,0,0,1,10.19-2.89,17.13,17.13,0,0,1,10.19,2.89c4,2.83,5.86,7.48,5.86,12.73V75.4C61.28,84,56.21,91,45.23,91c-7,0-11.57-2.84-14-7.13a17.21,17.21,0,0,1-2.06-8.5Zm48.38,60.55H68.11V44.74h9v4.73h.17c3.12-4,5.4-5.57,10.13-5.57,5.91,0,9.63,4.39,9.63,12.67V78.35C97,86.63,93.27,91,87.36,91c-4.14,0-6.08-1.69-9.8-4.73v18.24Zm204.31-22c-2.59,5.13-8,7.89-14.85,7.89-9.71,0-15.29-7.77-15.71-16.89l10-1.44c.42,6.16,2.87,9.21,6.25,9.21,3.63,0,6.08-1.94,6.08-5.57,0-12.08-21.28-15.29-21.28-32.77,0-5.15,1.68-9.1,4.78-11.69,2.74-2.29,6.6-3.52,11.44-3.52A13.46,13.46,0,0,1,278,31.25a15.32,15.32,0,0,1,3.88,6,22.08,22.08,0,0,1,1.2,5.22l-1.2.13-8.77,1c-.42-5.24-3.21-6.76-5.57-6.76-3.38,0-5.24,2.2-5.24,6,0,8.59,14.54,13.49,19.58,24.28a17.77,17.77,0,0,1,1.7,7.64A17,17,0,0,1,281.88,82.5Z"/><path class="cls-2" d="M45.23,81.9c4.22,0,5.57-2.2,5.57-6.76V44.23c0-4.56-1.35-6.76-5.57-6.76s-5.57,2.2-5.57,6.76V75.14h0C39.66,79.7,41,81.9,45.23,81.9Z"/><path class="cls-2" d="M196,73V46.35c0-6.42-1.94-8.53-7.52-8.53h-3.63V81.56h3.63C194,81.56,196,79.45,196,73Z"/><path class="cls-2" d="M123.4,59.1c0-5.24-1.86-7.43-5.24-7.43s-5.24,2.2-5.24,7.43v2.36H123.4Z"/><path class="cls-2" d="M87.53,75.9V59c0-6-2-7.35-4.56-7.35-1.86,0-3.55,1-5.4,2.36V80.89c1.86,1.35,3.55,2.36,5.4,2.36C85.5,83.25,87.53,81.9,87.53,75.9Z"/></g></g></svg>