<svg xmlns="http://www.w3.org/2000/svg" viewBox="0 0 313.13 123.96" width="313.13" height="123.96"><defs><style>.cls-1{fill:none;}.cls-2{fill:#f36418;}</style></defs><title>Asset 1</title><g id="Layer_2" data-name="Layer 2"><g id="svg2816"><path class="cls-1" d="M12.5,0H0V12.5A12.54,12.54,0,0,1,12.5,0Z"/><path class="cls-1" d="M300.63,124h12.5v-12.5A12.54,12.54,0,0,1,300.63,124Z"/><path class="cls-1" d="M0,111.46V124H12.5A12.54,12.54,0,0,1,0,111.46Z"/><path class="cls-1" d="M300.63,0a12.54,12.54,0,0,1,12.5,12.5V0Z"/><path class="cls-2" d="M300.63,0H12.5A12.54,12.54,0,0,0,0,12.5v99A12.54,12.54,0,0,0,12.5,124H300.63a12.54,12.54,0,0,0,12.5-12.5v-99A12.54,12.54,0,0,0,300.63,0ZM281.88,92.71H77.57v11.82H68.11V92.71H31.25V83.89a17.21,17.21,0,0,1-2.06-8.5V44a17.21,17.21,0,0,1,2.06-8.5V31.25H35a17.13,17.13,0,0,1,10.19-2.89,17.13,17.13,0,0,1,10.19,2.89H174.34v-2h15.54a18.69,18.69,0,0,1,9.14,2h14.22v-2H223l.75,2h12.17v-2h9.46v2h11.78c2.74-2.29,6.6-3.52,11.44-3.52A13.46,13.46,0,0,1,278,31.25h3.88v6a22.08,22.08,0,0,1,1.2,5.22l-1.2.13V67.13a17.77,17.77,0,0,1,1.7,7.64,17,17,0,0,1-1.7,7.73Z"/><path class="cls-2" d="M267,90.39c-9.71,0-15.29-7.77-15.71-16.89l10-1.44c.42,6.16,2.87,9.21,6.25,9.21,3.63,0,6.08-1.94,6.08-5.57,0-12.08-21.28-15.29-21.28-32.77,0-5.15,1.68-9.1,4.78-11.69H245.33V90.17h-9.12L222.87,52.09h-.17V90.17h-9.46V31.25H199c4.86,2.69,7.41,8.07,7.41,16.36V71.77c0,12.5-5.74,18.41-16.55,18.41H174.34V31.25H55.42c4,2.83,5.86,7.48,5.86,12.73V75.4C61.28,84,56.21,91,45.23,91c-7,0-11.57-2.84-14-7.13v8.82H68.11v-48h9v4.73h.17c3.12-4,5.4-5.57,10.13-5.57,5.91,0,9.63,4.39,9.63,12.67V78.35C97,86.63,93.27,91,87.36,91c-4.14,0-6.08-1.69-9.8-4.73v6.42H281.88V82.5C279.28,87.63,273.91,90.39,267,90.39ZM132.85,69.23H112.92v6.59c0,5.24,1.86,7.43,5.24,7.43s5.24-2.19,5.24-7.43v-1h9.46C132.68,84.43,128.72,91,118.16,91c-10.81,0-14.69-6.93-14.69-16.89V60.79c0-10,3.88-16.89,14.69-16.89s14.69,6.92,14.69,16.89Zm34.42,20.94h-9.46V55c0-2.28-1.35-3.29-3.38-3.29s-3.88,1.27-6.08,2.87V90.17H138.9V44.74h9V49.3c4-3.38,6-5.4,11.48-5.4,5,0,7.94,3.63,7.94,9.54Z"/><path class="cls-2" d="M45.23,81.9c4.22,0,5.57-2.2,5.57-6.76V44.23c0-4.56-1.35-6.76-5.57-6.76s-5.57,2.2-5.57,6.76V75.14h0C39.66,79.7,41,81.9,45.23,81.9Z"/><path class="cls-2" d="M188.44,81.56C194,81.56,196,79.45,196,73V46.35c0-6.42-1.94-8.53-7.52-8.53h-3.63V81.56Z"/><polygon class="cls-2" points="235.87 64.08 235.87 31.25 223.7 31.25 235.7 64.08 235.87 64.08"/><path class="cls-2" d="M35,31.25H31.25v4.24A13,13,0,0,1,35,31.25Z"/><path class="cls-2" d="M118.16,51.67c-3.38,0-5.24,2.2-5.24,7.43v2.36H123.4V59.1C123.4,53.86,121.54,51.67,118.16,51.67Z"/><path class="cls-2" d="M281.88,37.29v-6H278A15.32,15.32,0,0,1,281.88,37.29Z"/><path class="cls-2" d="M267.53,36.85c-3.38,0-5.24,2.2-5.24,6,0,8.59,14.54,13.49,19.58,24.28V42.64l-8.77,1C272.68,38.37,269.9,36.85,267.53,36.85Z"/><path class="cls-2" d="M87.53,75.9V59c0-6-2-7.35-4.56-7.35-1.86,0-3.55,1-5.4,2.36V80.89c1.86,1.35,3.55,2.36,5.4,2.36C85.5,83.25,87.53,81.9,87.53,75.9Z"/></g></g></svg>